<svg xmlns="http://www.w3.org/2000/svg" viewBox="0 0 79 79"><g data-name="Layer 2"><g data-name="Layer 1"><path fill="#249fe6" d="M70.1 36.52a32.93 32.93 0 0 1-33.1 33 33.32 33.32 0 0 1-10.4-1.7 8 8 0 0 0-4.8-3.4 7 7 0 0 0-2.9-.3 33.17 33.17 0 0 1-13.2-38.3c2.3-.5 3.9-1.9 3.8-3.3a2.79 2.79 0 0 0-1.4-2.1 33.06 33.06 0 0 1 58.7 1.7l-.2.2a5.55 5.55 0 0 0-.8 7.8 5.26 5.26 0 0 0 2.8 1.8c.3.1.5.1.8.2h.3a21.83 21.83 0 0 1 .4 4.4z"/><path fill="#249fe6" d="M69.6 36.52A32.5 32.5 0 0 1 37.1 69a32.09 32.09 0 0 1-10.2-1.7 7.5 7.5 0 0 0-4.7-3.3 6.72 6.72 0 0 0-2.8-.3 32.56 32.56 0 0 1-13-37.6c2.2-.5 3.8-1.8 3.7-3.3a2.47 2.47 0 0 0-1.4-2 32.55 32.55 0 0 1 57.8 1.7l-.2.2a5.41 5.41 0 0 0-.8 7.6 5.26 5.26 0 0 0 2.8 1.8c.3.1.5.1.8.2h.3c.1 1.42.2 2.82.2 4.22z"/><ellipse cx="51.49" cy="58.32" fill="#d7f0ee" rx="6" ry="4.6" transform="rotate(-30.83 51.492 58.316)"/><ellipse cx="51.83" cy="58.92" fill="#1b403d" rx="6" ry="4.4" transform="rotate(-30.83 51.834 58.917)"/><ellipse cx="51.63" cy="58.64" fill="#1c5955" rx="6" ry="4.4" transform="rotate(-30.83 51.617 58.643)"/><ellipse cx="50.61" cy="59.22" fill="#2a867f" rx="5.2" ry="3.4" transform="rotate(-30.67 50.61 59.223)"/><path fill="#5b99a1" d="M68.9 32.22a2.35 2.35 0 0 1-.8-.2 5.45 5.45 0 0 1-3.8-6.7 5.26 5.26 0 0 1 1.8-2.8 32.56 32.56 0 0 0-16.4-15.9 63 63 0 0 1 7.2 29.8 68.63 68.63 0 0 1-2.1 16.9 4.06 4.06 0 0 1 2.3 1.6c0 .1.1.1.1.2l.1.1.1.1.1.1c1.3 2.2.1 5.4-2.8 7a7.71 7.71 0 0 1-3.6 1.2c-.5.9-.8 1.7-1.3 2.5a32.16 32.16 0 0 0 19.1-33.9z"/><ellipse cx="23.3" cy="17.53" fill="#d7f0ee" rx="3.3" ry="2.5" transform="rotate(-32.21 23.304 17.535)"/><ellipse cx="23.1" cy="17.24" fill="#1b403d" rx="3.3" ry="2.4" transform="rotate(-32.21 23.092 17.23)"/><ellipse cx="23.21" cy="17.43" fill="#1c5955" rx="3.3" ry="2.4" transform="rotate(-32.21 23.202 17.43)"/><ellipse cx="23.48" cy="17.84" fill="#2a867f" rx="2.9" ry="1.9" transform="rotate(-32.21 23.476 17.847)"/><ellipse cx="13.69" cy="49.1" fill="#d7f0ee" rx="3.5" ry="7.2" transform="rotate(-37.86 13.696 49.097)"/><ellipse cx="13.31" cy="49.42" fill="#1b403d" rx="3.3" ry="7.2" transform="rotate(-37.86 13.308 49.42)"/><ellipse cx="13.49" cy="49.23" fill="#1c5955" rx="3.3" ry="7.2" transform="rotate(-37.86 13.49 49.222)"/><ellipse cx="14.06" cy="48.74" fill="#2a867f" rx="2.5" ry="6.3" transform="rotate(-37.86 14.065 48.735)"/><path fill="#fff" d="M47.6 25.92a2.72 2.72 0 0 1 0 3.9l-16.1 16.1a2.72 2.72 0 0 1-3.9 0 2.72 2.72 0 0 1 0-3.9l16.1-16.1a2.72 2.72 0 0 1 3.9 0z"/><path fill="#1b403d" d="M46.6 27a2.84 2.84 0 0 1 0 4l-16 16a2.84 2.84 0 0 1-4 0 2.84 2.84 0 0 1 0-4l16-16a2.84 2.84 0 0 1 4 0z"/><path fill="#1c5955" d="M46.7 26.82a2.72 2.72 0 0 1 0 3.9l-16.1 16.1a2.72 2.72 0 0 1-3.9 0 2.72 2.72 0 0 1 0-3.9l16.1-16.1a2.72 2.72 0 0 1 3.9 0z"/><path fill="#24706b" d="M47.3 26.12a2.66 2.66 0 0 1 0 3.7L31 46.12a2.66 2.66 0 0 1-3.7 0 2.66 2.66 0 0 1 0-3.7l16.3-16.3a2.49 2.49 0 0 1 3.7 0z"/><path fill="#fff" d="M26.5 26a2.66 2.66 0 0 1 3.7 0l16.3 16.3a2.66 2.66 0 0 1 0 3.7 2.66 2.66 0 0 1-3.7 0L26.5 29.72a2.66 2.66 0 0 1 0-3.72z"/><path fill="#1b403d" d="M27.6 27.12a2.66 2.66 0 0 1 3.7 0l16.3 16.3a2.66 2.66 0 0 1 0 3.7 2.66 2.66 0 0 1-3.7 0l-16.3-16.3a2.49 2.49 0 0 1 0-3.7z"/><path fill="#1c5955" d="M27.4 26.92a2.66 2.66 0 0 1 3.7 0l16.3 16.3a2.66 2.66 0 0 1 0 3.7 2.66 2.66 0 0 1-3.7 0l-16.3-16.3a2.49 2.49 0 0 1 0-3.7z"/><path fill="#24706b" d="M26.7 26.32a2.66 2.66 0 0 1 3.7 0l16.3 16.3a2.66 2.66 0 0 1 0 3.7 2.66 2.66 0 0 1-3.7 0L26.7 30a2.66 2.66 0 0 1 0-3.68z"/></g></g></svg>