<svg xmlns="http://www.w3.org/2000/svg" enable-background="new 0 0 47.5 47.5" viewBox="0 0 47.5 47.5" id="label"><defs><clipPath id="a"><path d="M0 38h38V0H0v38Z"></path></clipPath></defs><g clip-path="url(#a)" transform="matrix(1.25 0 0 -1.25 0 47.5)"><path fill="greenyellow" d="M0 0c-.193 0-.638.037-.824.114-.56.233-1.175.78-1.175 1.386v7h-7c-.607 0-1.154.615-1.386 1.176-.233.56-.104 1.331.325 1.76L13.001 34.5c1 1 3 1 4 0l7-7c1-1 1-3 0-4L1.144.646C.774.15.391 0 0 0" transform="translate(12 1.5)"></path></g></svg>