<svg xmlns="http://www.w3.org/2000/svg" viewBox="0 0 64 64"><path fill="#2a2f63" d="M61.45 0H2.55c-.8 0-1.44.64-1.44 1.43v61.13c0 .79.64 1.44 1.44 1.44h58.9c.8 0 1.44-.65 1.44-1.44V1.43c0-.79-.64-1.43-1.44-1.43zM3.98 2.86h26.59v8.04H3.98V2.86zm56.04 58.27H3.98V13.77h56.04v47.36zm0-50.23H33.43V2.86h26.59v8.04z"/><path fill="#edeced" d="M3.98 13.77v47.36h56.04V13.77H3.98zm53.98 44.82c0 .79-.65 1.43-1.44 1.43H7.83c-.8 0-1.44-.64-1.44-1.43V16.35c0-.79.64-1.43 1.44-1.43h48.69c.79 0 1.44.64 1.44 1.43v42.24z"/><path fill="#ffdb7c" d="M3.98 2.86v8.04h26.59V2.86H3.98zm8.03 5.87c-.79 0-1.44-.65-1.44-1.44s.65-1.44 1.44-1.44 1.44.65 1.44 1.44-.65 1.44-1.44 1.44zm6.04 0a1.44 1.44 0 0 1 0-2.88c.79 0 1.44.65 1.44 1.44s-.65 1.44-1.44 1.44zm6.03.01c-.79 0-1.44-.65-1.44-1.44s.65-1.44 1.44-1.44c.79 0 1.44.65 1.44 1.44s-.65 1.44-1.44 1.44zm9.35-5.88v8.04h26.59V2.86H33.43zm18.56 5.46h-9.6c-.79 0-1.43-.65-1.43-1.44s.64-1.43 1.43-1.43h9.6c.8 0 1.44.64 1.44 1.43s-.64 1.44-1.44 1.44z"/><path fill="#2a2f63" d="M53.43 6.88c0 .79-.64 1.44-1.44 1.44h-9.6c-.79 0-1.43-.65-1.43-1.44s.64-1.43 1.43-1.43h9.6c.8 0 1.44.64 1.44 1.43z"/><circle cx="12.01" cy="7.29" r="1.44" fill="#2a2f63"/><circle cx="18.05" cy="7.29" r="1.44" fill="#2a2f63"/><circle cx="24.08" cy="7.3" r="1.44" fill="#2a2f63"/><path fill="#2a2f63" d="M56.52 14.92H7.83c-.8 0-1.44.64-1.44 1.43v42.24c0 .79.64 1.43 1.44 1.43h48.69c.79 0 1.44-.64 1.44-1.43V16.35c0-.79-.65-1.43-1.44-1.43zm-1.43 42.24H9.26V17.78h45.83v39.38z"/><path fill="#edeced" d="M9.26 17.78v39.38h45.83V17.78H9.26zm25.36 4.07c0-.17.04-.33.09-.48.01-.01.01-.03.02-.04.06-.17.16-.32.28-.45 0-.01.01-.01.01-.02 0 0 .01 0 .01-.01.13-.13.28-.23.45-.31 0 0 .01 0 .01-.01.16-.06.33-.1.51-.11h15.3c.18.01.35.05.51.11 0 .01.01.01.01.01.17.08.32.18.45.31 0 .01.01.01.01.01.01.01.01.01.01.02.12.13.22.28.28.45.01.01.01.03.02.04.05.15.09.31.09.48v14.49c0 .16-.04.32-.09.47-.01.02-.01.03-.02.05-.06.17-.16.32-.28.45 0 0 0 .01-.01.02 0 0-.01 0-.01.01-.05.05-.11.09-.16.13-.02.02-.04.04-.06.05-.08.06-.16.1-.25.14-.03.01-.06.01-.09.02-.06.03-.12.05-.18.06-.1.02-.19.03-.29.03H36.06c-.1 0-.19-.01-.29-.03a.636.636 0 0 1-.18-.06c-.03-.01-.06-.01-.09-.02a1.23 1.23 0 0 1-.25-.14.265.265 0 0 1-.06-.05c-.05-.04-.11-.08-.16-.13 0-.01 0-.01-.01-.01 0-.01-.01-.02-.01-.02-.12-.13-.22-.28-.28-.45-.01-.02-.01-.03-.02-.05-.05-.15-.09-.31-.09-.47V21.85zm-22.95 0c0-.17.04-.33.09-.48.01-.01.01-.03.01-.04.07-.17.17-.32.29-.45 0-.01 0-.01.01-.02l.01-.01c.13-.13.28-.23.45-.31 0 0 .01 0 .01-.01.16-.06.33-.1.51-.11H28.35c.18.01.35.05.51.11 0 .01.01.01.01.01.17.08.32.18.45.31 0 .01 0 .01.01.01 0 .01 0 .01.01.02.12.13.22.28.28.45.01.01.01.03.02.04.05.15.08.31.08.48v14.49c0 .16-.03.32-.08.47-.01.02-.01.03-.02.05-.06.17-.16.32-.28.45-.01 0-.01.01-.01.02-.01 0-.01 0-.01.01-.05.05-.11.09-.17.13-.02.02-.03.04-.06.05-.07.06-.16.1-.24.14-.03.01-.06.01-.09.02-.06.03-.12.05-.18.06-.1.02-.19.03-.29.03H13.11c-.1 0-.2-.01-.29-.03a.636.636 0 0 1-.18-.06c-.03-.01-.06-.01-.09-.02a1.23 1.23 0 0 1-.25-.14.265.265 0 0 1-.06-.05c-.05-.04-.11-.08-.16-.13 0-.01-.01-.01-.01-.01-.01-.01-.01-.02-.01-.02-.12-.13-.22-.28-.29-.45 0-.02 0-.03-.01-.05-.05-.15-.09-.31-.09-.47V21.85zm17.14 32.68H12.58c-.79 0-1.43-.65-1.43-1.44s.64-1.43 1.43-1.43h16.23c.8 0 1.44.64 1.44 1.43s-.64 1.44-1.44 1.44zm0-5.15H12.58c-.79 0-1.43-.64-1.43-1.44 0-.79.64-1.43 1.43-1.43h16.23a1.434 1.434 0 1 1 0 2.87zm0-5.15H12.58c-.79 0-1.43-.64-1.43-1.43 0-.8.64-1.44 1.43-1.44h16.23a1.434 1.434 0 1 1 0 2.87zm22.96 10.3H35.53c-.79 0-1.43-.65-1.43-1.44s.64-1.43 1.43-1.43h16.24c.79 0 1.43.64 1.43 1.43s-.64 1.44-1.43 1.44zm0-5.15H35.53c-.79 0-1.43-.64-1.43-1.44 0-.79.64-1.43 1.43-1.43h16.24c.79 0 1.43.64 1.43 1.43 0 .8-.64 1.44-1.43 1.44zm0-5.15H35.53c-.79 0-1.43-.64-1.43-1.43 0-.8.64-1.44 1.43-1.44h16.24c.79 0 1.43.64 1.43 1.44 0 .79-.64 1.43-1.43 1.43z"/><path fill="#2a2f63" d="M29.64 21.37c-.01-.01-.01-.03-.02-.04-.06-.17-.16-.32-.28-.45-.01-.01-.01-.01-.01-.02-.01 0-.01 0-.01-.01a1.57 1.57 0 0 0-.45-.31s-.01 0-.01-.01c-.16-.06-.33-.1-.51-.11h-15.3c-.18.01-.35.05-.51.11 0 .01-.01.01-.01.01-.17.08-.32.18-.45.31l-.01.01c-.01.01-.01.01-.01.02-.12.13-.22.28-.29.45 0 .01 0 .03-.01.04-.05.15-.09.31-.09.48v14.49c0 .16.04.32.09.47.01.02.01.03.01.05.07.17.17.32.29.45 0 0 0 .01.01.02 0 0 .01 0 .01.01.05.05.11.09.16.13.02.02.04.04.06.05.08.06.16.1.25.14.03.01.06.01.09.02.06.03.12.05.18.06.09.02.19.03.29.03h15.18c.1 0 .19-.01.29-.03.06-.01.12-.03.18-.06.03-.01.06-.01.09-.02.08-.04.17-.08.24-.14.03-.01.04-.03.06-.05.06-.04.12-.08.17-.13 0-.01 0-.01.01-.01 0-.01 0-.02.01-.02.12-.13.22-.28.28-.45.01-.02.01-.03.02-.05.05-.15.08-.31.08-.47V21.85c0-.17-.03-.33-.08-.48zm-4.93 1.91-4.01 3.83-4.02-3.83h8.03zM14.54 25.2l4.08 3.89-4.08 3.9V25.2zm2.14 9.7 4.02-3.83 4.01 3.83h-8.03zm10.18-1.91-4.09-3.9 4.09-3.89v7.79z"/><path fill="#f16e61" d="m24.71 23.28-4.01 3.83-4.02-3.83zM18.62 29.09l-4.08 3.9V25.2zM24.71 34.9h-8.03l4.02-3.83zM26.86 25.2v7.79l-4.09-3.9z"/><path fill="#2a2f63" d="M52.59 21.37c-.01-.01-.01-.03-.02-.04-.06-.17-.16-.32-.28-.45 0-.01 0-.01-.01-.02 0 0-.01 0-.01-.01a1.57 1.57 0 0 0-.45-.31s-.01 0-.01-.01c-.16-.06-.33-.1-.51-.11H36c-.18.01-.35.05-.51.11 0 .01-.01.01-.01.01-.17.08-.32.18-.45.31 0 .01-.01.01-.01.01 0 .01-.01.01-.01.02-.12.13-.22.28-.28.45-.01.01-.01.03-.02.04-.05.15-.09.31-.09.48v14.49c0 .16.04.32.09.47.01.02.01.03.02.05.06.17.16.32.28.45 0 0 .01.01.01.02.01 0 .01 0 .01.01.05.05.11.09.16.13.02.02.04.04.06.05.08.06.16.1.25.14.03.01.06.01.09.02.06.03.12.05.18.06.1.02.19.03.29.03h15.18c.1 0 .19-.01.29-.03.06-.01.12-.03.18-.06.03-.01.06-.01.09-.02.09-.04.17-.08.25-.14.02-.01.04-.03.06-.05.05-.04.11-.08.16-.13 0-.01.01-.01.01-.01.01-.01.01-.02.01-.02.12-.13.22-.28.28-.45.01-.02.01-.03.02-.05.05-.15.09-.31.09-.47V21.85c0-.17-.04-.33-.09-.48zm-4.92 1.91-4.02 3.83-4.01-3.83h8.03zM37.49 25.2l4.08 3.89-4.08 3.9V25.2zm2.15 9.7 4.01-3.83 4.02 3.83h-8.03zm10.17-1.91-4.08-3.9 4.08-3.89v7.79z"/><path fill="#53be9e" d="M49.81 25.2v7.79l-4.08-3.9zM47.67 23.28l-4.02 3.83-4.01-3.83zM41.57 29.09l-4.08 3.9V25.2zM47.67 34.9h-8.03l4.01-3.83z"/><path fill="#2a2f63" d="M30.25 42.8c0 .79-.64 1.43-1.44 1.43H12.58c-.79 0-1.43-.64-1.43-1.43 0-.8.64-1.44 1.43-1.44h16.23c.8 0 1.44.64 1.44 1.44zm0 5.14c0 .8-.64 1.44-1.44 1.44H12.58c-.79 0-1.43-.64-1.43-1.44 0-.79.64-1.43 1.43-1.43h16.23c.8 0 1.44.64 1.44 1.43zm0 5.15c0 .79-.64 1.44-1.44 1.44H12.58c-.79 0-1.43-.65-1.43-1.44s.64-1.43 1.43-1.43h16.23c.8 0 1.44.64 1.44 1.43zM53.2 42.8c0 .79-.64 1.43-1.43 1.43H35.53c-.79 0-1.43-.64-1.43-1.43 0-.8.64-1.44 1.43-1.44h16.24c.79 0 1.43.64 1.43 1.44zm0 5.14c0 .8-.64 1.44-1.43 1.44H35.53c-.79 0-1.43-.64-1.43-1.44 0-.79.64-1.43 1.43-1.43h16.24c.79 0 1.43.64 1.43 1.43zm0 5.15c0 .79-.64 1.44-1.43 1.44H35.53c-.79 0-1.43-.65-1.43-1.44s.64-1.43 1.43-1.43h16.24c.79 0 1.43.64 1.43 1.43z"/></svg>